<svg width="18" height="18" viewBox="0 0 18 18" fill="none" xmlns="http://www.w3.org/2000/svg">
<path fill-rule="evenodd" clip-rule="evenodd" d="M2.78268 0.666016H5.59935C6.77435 0.666016 7.71602 1.62435 7.71602 2.80018V5.64102C7.71602 6.82435 6.77435 7.77435 5.59935 7.77435H2.78268C1.61602 7.77435 0.666016 6.82435 0.666016 5.64102V2.80018C0.666016 1.62435 1.61602 0.666016 2.78268 0.666016ZM2.78268 10.2241H5.59935C6.77435 10.2241 7.71602 11.1749 7.71602 12.3583V15.1991C7.71602 16.3741 6.77435 17.3324 5.59935 17.3324H2.78268C1.61602 17.3324 0.666016 16.3741 0.666016 15.1991V12.3583C0.666016 11.1749 1.61602 10.2241 2.78268 10.2241ZM15.2161 0.666016H12.3994C11.2244 0.666016 10.2828 1.62435 10.2828 2.80018V5.64102C10.2828 6.82435 11.2244 7.77435 12.3994 7.77435H15.2161C16.3828 7.77435 17.3328 6.82435 17.3328 5.64102V2.80018C17.3328 1.62435 16.3828 0.666016 15.2161 0.666016ZM12.3994 10.2241H15.2161C16.3828 10.2241 17.3328 11.1749 17.3328 12.3583V15.1991C17.3328 16.3741 16.3828 17.3324 15.2161 17.3324H12.3994C11.2244 17.3324 10.2828 16.3741 10.2828 15.1991V12.3583C10.2828 11.1749 11.2244 10.2241 12.3994 10.2241Z" fill="#7966FF"/>
</svg>
