<svg width="24" height="25" viewBox="0 0 24 25" fill="none" xmlns="http://www.w3.org/2000/svg">
<rect y="0.148438" width="24" height="24" rx="12" fill="#FFC22D"/>
<path d="M10.0279 5.81919C9.48364 5.68451 8.80337 5.54983 8.25915 5.54983C7.71494 5.54983 7.03466 5.68451 6.49045 5.81919C6.01426 5.88653 5.67412 6.29057 5.60609 6.76195C5.53807 7.30067 5.33398 8.37811 5.33398 9.11885C5.33398 9.85959 5.47004 10.8024 5.53807 11.4758C5.60609 11.9471 5.94623 12.3512 6.42242 12.4185C6.89861 12.5532 7.64691 12.6205 8.19113 12.6205C8.73534 12.6205 9.41562 12.4859 9.95984 12.4185C10.436 12.3512 10.7762 11.9471 10.8442 11.4758C10.9802 10.8024 11.0483 9.85959 11.0483 9.11885C11.0483 8.37811 10.9122 7.30067 10.8442 6.76195C10.8442 6.29057 10.5041 5.88653 10.0279 5.81919Z" fill="white"/>
<path d="M17.5109 11.8797C17.0347 11.745 16.2864 11.6777 15.7422 11.6777C15.1979 11.6777 14.5177 11.8124 13.9734 11.8797C13.4973 11.947 13.1571 12.3511 13.0891 12.8225C12.953 13.4959 12.885 14.4386 12.885 15.1794C12.885 15.9201 13.0211 16.8629 13.0891 17.5363C13.1571 18.0076 13.4973 18.4117 13.9734 18.479C14.4496 18.6137 15.1979 18.681 15.7422 18.681C16.2864 18.681 16.9666 18.5464 17.5109 18.479C17.9871 18.4117 18.3272 18.0076 18.3952 17.5363C18.5313 16.8629 18.5993 15.9201 18.5993 15.1794C18.5993 14.4386 18.5313 13.4959 18.3952 12.8225C18.3272 12.3511 17.9871 11.947 17.5109 11.8797Z" fill="white"/>
<path d="M10.0959 14.5733C9.55167 14.4386 8.8714 14.3713 8.25915 14.3713C7.64691 14.3713 6.96664 14.506 6.42242 14.5733C6.01426 14.6406 5.67412 14.9773 5.53807 15.3814C5.40201 15.8528 5.33398 16.2568 5.33398 16.5935C5.33398 16.9302 5.40201 17.2669 5.53807 17.8056C5.67412 18.2097 6.01426 18.479 6.42242 18.6137C6.96664 18.7484 7.64691 18.8157 8.25915 18.8157C8.8714 18.8157 9.55167 18.681 10.0959 18.6137C10.5041 18.5464 10.8442 18.2097 10.9802 17.8056C11.1163 17.3342 11.1843 16.9302 11.1843 16.5935C11.1843 16.2568 11.1163 15.9201 10.9802 15.3814C10.8442 14.91 10.5041 14.6406 10.0959 14.5733Z" fill="white"/>
<path d="M13.9054 9.72485C14.4496 9.85953 15.1299 9.92687 15.7421 9.92687C16.3544 9.92687 17.0347 9.79219 17.5789 9.72485C17.987 9.65751 18.3272 9.32081 18.4632 8.91677C18.5993 8.44539 18.6673 8.04134 18.6673 7.70464C18.6673 7.36794 18.5993 7.03124 18.4632 6.49252C18.3272 6.08848 17.987 5.81912 17.5789 5.68444C17.0347 5.54976 16.3544 5.48242 15.7421 5.48242C15.1299 5.48242 14.4496 5.6171 13.9054 5.68444C13.4973 5.75178 13.1571 6.08848 13.0211 6.49252C12.885 6.9639 12.817 7.36794 12.817 7.70464C12.817 8.04134 12.885 8.37805 13.0211 8.91677C13.1571 9.38815 13.4973 9.65751 13.9054 9.72485Z" fill="white"/>
</svg>
